<?xml version="1.0" standalone="no"?>
<!DOCTYPE svg PUBLIC "-//W3C//DTD SVG 20010904//EN"
 "http://www.w3.org/TR/2001/REC-SVG-20010904/DTD/svg10.dtd">
<svg version="1.0" xmlns="http://www.w3.org/2000/svg"
 width="250.000000pt" height="200.000000pt" viewBox="0 0 250.000000 200.000000"
 preserveAspectRatio="xMidYMid meet">
<metadata>
Created by potrace 1.15, written by Peter Selinger 2001-2017
</metadata>
<g transform="translate(0.000000,200.000000) scale(0.100000,-0.100000)"
fill="#000000" stroke="none">
<path d="M34 1556 c-34 -34 -34 -35 -34 -125 0 -85 2 -93 27 -121 17 -19 44
-35 68 -40 55 -13 990 -13 1036 0 19 5 48 24 65 41 28 29 29 34 29 120 l0 91
-37 34 -38 34 -541 0 -541 0 -34 -34z"/>
<path d="M1389 1575 c-58 -32 -59 -37 -59 -570 0 -430 2 -491 16 -521 24 -50
59 -64 155 -64 79 0 82 1 115 34 l34 34 0 517 0 517 -34 34 c-33 33 -36 34
-117 34 -53 -1 -94 -6 -110 -15z"/>
<path d="M1812 1574 c-52 -36 -52 -35 -52 -569 0 -420 2 -500 15 -525 25 -49
51 -60 142 -60 81 0 84 1 121 34 l37 34 0 517 0 517 -37 34 c-37 33 -40 34
-121 34 -59 0 -89 -5 -105 -16z"/>
<path d="M2236 1569 c-57 -45 -56 -36 -56 -564 0 -528 -1 -519 56 -564 22 -18
41 -21 111 -21 83 0 86 1 119 34 l34 34 0 517 0 517 -34 34 c-33 33 -36 34
-119 34 -70 0 -89 -3 -111 -21z"/>
<path d="M74 1160 c-11 -4 -33 -22 -47 -40 -25 -29 -27 -39 -27 -113 1 -91 11
-118 56 -148 28 -18 52 -19 554 -19 509 0 526 1 558 20 42 26 62 73 62 147 0
73 -24 122 -70 145 -32 16 -79 18 -550 17 -283 0 -524 -4 -536 -9z"/>
<path d="M90 740 c-19 -5 -47 -22 -62 -39 -26 -29 -28 -37 -28 -122 0 -90 0
-91 34 -125 l34 -34 541 0 541 0 38 34 37 34 0 91 c0 86 -1 91 -29 120 -17 17
-46 36 -65 41 -43 12 -990 12 -1041 0z"/>
</g>
</svg>
